<mxfile host="app.diagrams.net" modified="2022-02-18T13:29:21.912Z" agent="5.0 (Macintosh; Intel Mac OS X 10_15_7) AppleWebKit/605.1.15 (KHTML, like Gecko) Version/14.1.1 Safari/605.1.15" etag="m44ostzpdtCaUcolbWxQ" version="16.6.1" type="github">
  <diagram id="zCFxmyOmZ5Bgb-kDErG5" name="Page-1">
    <mxGraphModel dx="946" dy="586" grid="1" gridSize="10" guides="1" tooltips="1" connect="1" arrows="1" fold="1" page="1" pageScale="1" pageWidth="827" pageHeight="1169" math="0" shadow="0">
      <root>
        <mxCell id="0" />
        <mxCell id="1" parent="0" />
        <mxCell id="BR_ztrDemTxYmYdu7IgQ-5" value="&lt;font color=&quot;#333333&quot; face=&quot;helvetica neue, helvetica, arial, sans-serif&quot;&gt;&lt;span style=&quot;font-size: 14px;&quot;&gt;节点 A&lt;/span&gt;&lt;/font&gt;" style="rounded=1;whiteSpace=wrap;html=1;labelBackgroundColor=none;fontSize=16;verticalAlign=bottom;fillColor=#f5f5f5;strokeColor=#666666;fontColor=#333333;" vertex="1" parent="1">
          <mxGeometry x="60" y="250" width="170" height="120" as="geometry" />
        </mxCell>
        <mxCell id="BR_ztrDemTxYmYdu7IgQ-1" value="&lt;span style=&quot;color: rgb(51, 51, 51); font-family: &amp;quot;helvetica neue&amp;quot;, helvetica, arial, sans-serif; font-size: 14px;&quot;&gt;key-01 数据&lt;/span&gt;" style="rounded=1;whiteSpace=wrap;html=1;labelBackgroundColor=none;fontSize=16;fillColor=#dae8fc;strokeColor=#6c8ebf;" vertex="1" parent="1">
          <mxGeometry x="80" y="280" width="120" height="60" as="geometry" />
        </mxCell>
        <mxCell id="BR_ztrDemTxYmYdu7IgQ-6" value="&lt;font color=&quot;#333333&quot; face=&quot;helvetica neue, helvetica, arial, sans-serif&quot;&gt;&lt;span style=&quot;font-size: 14px;&quot;&gt;节点 B&lt;/span&gt;&lt;/font&gt;" style="rounded=1;whiteSpace=wrap;html=1;labelBackgroundColor=none;fontSize=16;fontColor=#333333;verticalAlign=bottom;fillColor=#f5f5f5;strokeColor=#666666;" vertex="1" parent="1">
          <mxGeometry x="270" y="250" width="170" height="120" as="geometry" />
        </mxCell>
        <mxCell id="BR_ztrDemTxYmYdu7IgQ-7" value="&lt;span style=&quot;color: rgb(51, 51, 51); font-family: &amp;quot;helvetica neue&amp;quot;, helvetica, arial, sans-serif; font-size: 14px;&quot;&gt;key-02 数据&lt;/span&gt;" style="rounded=1;whiteSpace=wrap;html=1;labelBackgroundColor=none;fontSize=16;fillColor=#dae8fc;strokeColor=#6c8ebf;" vertex="1" parent="1">
          <mxGeometry x="290" y="280" width="120" height="60" as="geometry" />
        </mxCell>
        <mxCell id="BR_ztrDemTxYmYdu7IgQ-8" value="&lt;font color=&quot;#333333&quot; face=&quot;helvetica neue, helvetica, arial, sans-serif&quot;&gt;&lt;span style=&quot;font-size: 14px;&quot;&gt;节点 C&lt;/span&gt;&lt;/font&gt;" style="rounded=1;whiteSpace=wrap;html=1;labelBackgroundColor=none;fontSize=16;fontColor=#333333;verticalAlign=bottom;fillColor=#f5f5f5;strokeColor=#666666;" vertex="1" parent="1">
          <mxGeometry x="480" y="250" width="170" height="120" as="geometry" />
        </mxCell>
        <mxCell id="BR_ztrDemTxYmYdu7IgQ-9" value="&lt;span style=&quot;color: rgb(51, 51, 51); font-family: &amp;quot;helvetica neue&amp;quot;, helvetica, arial, sans-serif; font-size: 14px;&quot;&gt;key-03 数据&lt;/span&gt;" style="rounded=1;whiteSpace=wrap;html=1;labelBackgroundColor=none;fontSize=16;fillColor=#dae8fc;strokeColor=#6c8ebf;" vertex="1" parent="1">
          <mxGeometry x="500" y="280" width="120" height="60" as="geometry" />
        </mxCell>
      </root>
    </mxGraphModel>
  </diagram>
</mxfile>
